<svg width="128" height="32" viewBox="0 0 128 32" fill="none" xmlns="http://www.w3.org/2000/svg">
<path d="M37.944 24C37.656 24 37.408 23.904 37.2 23.712C37.008 23.504 36.912 23.256 36.912 22.968V6.288C36.912 5.984 37.008 5.736 37.2 5.544C37.392 5.352 37.64 5.256 37.944 5.256H49.056C49.36 5.256 49.608 5.352 49.8 5.544C49.992 5.72 50.088 5.952 50.088 6.24C50.088 6.512 49.992 6.744 49.8 6.936C49.608 7.112 49.36 7.2 49.056 7.2H38.976V13.584H46.296C46.6 13.584 46.84 13.68 47.016 13.872C47.208 14.064 47.304 14.296 47.304 14.568C47.304 14.856 47.208 15.096 47.016 15.288C46.84 15.464 46.6 15.552 46.296 15.552H38.976V22.968C38.976 23.256 38.872 23.504 38.664 23.712C38.472 23.904 38.232 24 37.944 24ZM56.088 24C55.416 24 54.824 23.824 54.312 23.472C53.8 23.104 53.4 22.6 53.112 21.96C52.824 21.32 52.68 20.584 52.68 19.752V6.264C52.68 5.96 52.768 5.72 52.944 5.544C53.136 5.352 53.384 5.256 53.688 5.256C53.976 5.256 54.208 5.352 54.384 5.544C54.576 5.72 54.672 5.96 54.672 6.264V19.752C54.672 20.408 54.8 20.952 55.056 21.384C55.328 21.8 55.672 22.008 56.088 22.008H56.688C56.944 22.008 57.152 22.104 57.312 22.296C57.472 22.472 57.552 22.704 57.552 22.992C57.552 23.296 57.432 23.544 57.192 23.736C56.968 23.912 56.672 24 56.304 24H56.088ZM65.7381 24.144C64.6021 24.144 63.5861 23.912 62.6901 23.448C61.8101 22.968 61.1141 22.272 60.6021 21.36C60.0901 20.448 59.8341 19.328 59.8341 18V11.88C59.8341 11.592 59.9301 11.352 60.1221 11.16C60.3141 10.968 60.5541 10.872 60.8421 10.872C61.1301 10.872 61.3701 10.968 61.5621 11.16C61.7541 11.352 61.8501 11.592 61.8501 11.88V18C61.8501 18.976 62.0341 19.776 62.4021 20.4C62.7701 21.008 63.2661 21.472 63.8901 21.792C64.5141 22.096 65.2181 22.248 66.0021 22.248C66.7541 22.248 67.4341 22.104 68.0421 21.816C68.6501 21.512 69.1301 21.112 69.4821 20.616C69.8341 20.104 70.0101 19.52 70.0101 18.864H71.3781C71.3461 19.872 71.0821 20.776 70.5861 21.576C70.0901 22.36 69.4181 22.984 68.5701 23.448C67.7221 23.912 66.7781 24.144 65.7381 24.144ZM71.0181 24C70.7141 24 70.4661 23.912 70.2741 23.736C70.0981 23.544 70.0101 23.288 70.0101 22.968V11.88C70.0101 11.576 70.0981 11.336 70.2741 11.16C70.4661 10.968 70.7141 10.872 71.0181 10.872C71.3221 10.872 71.5701 10.968 71.7621 11.16C71.9541 11.336 72.0501 11.576 72.0501 11.88V22.968C72.0501 23.288 71.9541 23.544 71.7621 23.736C71.5701 23.912 71.3221 24 71.0181 24ZM78.6431 29.736C78.5151 29.736 78.3551 29.696 78.1631 29.616C77.5711 29.344 77.4111 28.92 77.6831 28.344L85.2911 11.424C85.5631 10.864 85.9871 10.712 86.5631 10.968C87.1551 11.208 87.3231 11.624 87.0671 12.216L79.4111 29.112C79.2511 29.528 78.9951 29.736 78.6431 29.736ZM81.3551 23.544C81.0991 23.672 80.8591 23.696 80.6351 23.616C80.4111 23.536 80.2271 23.36 80.0831 23.088L74.7071 12.216C74.5791 11.944 74.5551 11.696 74.6351 11.472C74.7311 11.248 74.9071 11.072 75.1631 10.944C75.4351 10.832 75.6831 10.816 75.9071 10.896C76.1311 10.976 76.3071 11.144 76.4351 11.4L81.6911 22.296C81.8191 22.552 81.8591 22.8 81.8111 23.04C81.7791 23.264 81.6271 23.432 81.3551 23.544ZM94.9965 24.12C93.6845 24.12 92.5245 23.84 91.5165 23.28C90.5085 22.704 89.7165 21.912 89.1405 20.904C88.5645 19.896 88.2765 18.744 88.2765 17.448C88.2765 16.136 88.5485 14.984 89.0925 13.992C89.6365 12.984 90.3805 12.192 91.3245 11.616C92.2845 11.04 93.3885 10.752 94.6365 10.752C95.8525 10.752 96.9085 11.032 97.8045 11.592C98.7165 12.136 99.4125 12.896 99.8925 13.872C100.389 14.848 100.637 15.96 100.637 17.208C100.637 17.48 100.549 17.704 100.372 17.88C100.197 18.04 99.9725 18.12 99.7005 18.12H89.6685V16.464H99.8205L98.7885 17.184C98.8045 16.304 98.6445 15.512 98.3085 14.808C97.9725 14.104 97.4925 13.552 96.8685 13.152C96.2445 12.752 95.5005 12.552 94.6365 12.552C93.7245 12.552 92.9245 12.76 92.2365 13.176C91.5645 13.592 91.0445 14.176 90.6765 14.928C90.3245 15.664 90.1485 16.504 90.1485 17.448C90.1485 18.392 90.3565 19.232 90.7725 19.968C91.1885 20.704 91.7565 21.28 92.4765 21.696C93.2125 22.112 94.0525 22.32 94.9965 22.32C95.5405 22.32 96.0925 22.224 96.6525 22.032C97.2285 21.84 97.6845 21.6 98.0205 21.312C98.2125 21.168 98.4285 21.096 98.6685 21.096C98.9245 21.08 99.1325 21.144 99.2925 21.288C99.5325 21.496 99.6525 21.72 99.6525 21.96C99.6685 22.2 99.5645 22.408 99.3405 22.584C98.8125 23.032 98.1405 23.4 97.3245 23.688C96.5085 23.976 95.7325 24.12 94.9965 24.12ZM114.97 24C114.666 24 114.418 23.904 114.226 23.712C114.034 23.52 113.938 23.28 113.938 22.992V16.872C113.938 15.896 113.754 15.104 113.386 14.496C113.034 13.872 112.546 13.408 111.922 13.104C111.298 12.784 110.586 12.624 109.786 12.624C109.034 12.624 108.354 12.776 107.746 13.08C107.154 13.368 106.682 13.768 106.33 14.28C105.978 14.776 105.802 15.352 105.802 16.008H104.41C104.442 15 104.706 14.104 105.202 13.32C105.714 12.52 106.394 11.888 107.242 11.424C108.09 10.96 109.034 10.728 110.074 10.728C111.194 10.728 112.194 10.968 113.074 11.448C113.97 11.912 114.674 12.6 115.186 13.512C115.714 14.424 115.978 15.544 115.978 16.872V22.992C115.978 23.28 115.882 23.52 115.69 23.712C115.498 23.904 115.258 24 114.97 24ZM104.794 24C104.474 24 104.218 23.912 104.026 23.736C103.85 23.544 103.762 23.296 103.762 22.992V11.904C103.762 11.584 103.85 11.336 104.026 11.16C104.218 10.968 104.474 10.872 104.794 10.872C105.098 10.872 105.338 10.968 105.514 11.16C105.706 11.336 105.802 11.584 105.802 11.904V22.992C105.802 23.296 105.706 23.544 105.514 23.736C105.338 23.912 105.098 24 104.794 24ZM125.067 24C124.235 24 123.491 23.8 122.835 23.4C122.179 23 121.659 22.448 121.275 21.744C120.907 21.04 120.723 20.248 120.723 19.368V7.704C120.723 7.416 120.811 7.176 120.987 6.984C121.179 6.792 121.427 6.696 121.731 6.696C122.019 6.696 122.259 6.792 122.451 6.984C122.643 7.176 122.739 7.416 122.739 7.704V19.368C122.739 20.12 122.955 20.744 123.387 21.24C123.835 21.736 124.395 21.984 125.067 21.984H125.787C126.043 21.984 126.259 22.08 126.435 22.272C126.611 22.464 126.699 22.704 126.699 22.992C126.699 23.296 126.587 23.544 126.363 23.736C126.155 23.912 125.883 24 125.547 24H125.067ZM119.307 13.104C119.035 13.104 118.811 13.024 118.635 12.864C118.459 12.688 118.371 12.48 118.371 12.24C118.371 11.984 118.459 11.776 118.635 11.616C118.811 11.44 119.035 11.352 119.307 11.352H125.235C125.507 11.352 125.731 11.44 125.907 11.616C126.083 11.776 126.171 11.984 126.171 12.24C126.171 12.48 126.083 12.688 125.907 12.864C125.731 13.024 125.507 13.104 125.235 13.104H119.307Z" fill="white"/>
<path d="M15.96 29.3333C23.324 29.3333 29.2933 23.364 29.2933 16C29.2933 8.63599 23.324 2.66666 15.96 2.66666C8.59598 2.66666 2.62665 8.63599 2.62665 16C2.62665 23.364 8.59598 29.3333 15.96 29.3333V29.3333Z" stroke="white" stroke-width="1.5" stroke-miterlimit="10" stroke-linecap="round" stroke-linejoin="round"/>
<path d="M18.8113 15.1108V10.114C18.8113 8.27896 17.4577 7 15.5045 7C13.5514 7 12.1978 8.27896 12.1978 10.114V15.1108C12.1978 16.9379 13.5514 18.2247 15.5045 18.2247C17.4577 18.2247 18.8113 16.9379 18.8113 15.1108ZM17.4396 15.1108C17.4396 16.2864 16.6674 17.0411 15.5045 17.0411C14.3417 17.0411 13.5695 16.2864 13.5695 15.1108V10.114C13.5695 8.9383 14.3417 8.18365 15.5045 8.18365C16.6674 8.18365 17.4396 8.9383 17.4396 10.114V15.1108ZM11.4437 22.8005C11.0622 22.8005 10.7624 23.0706 10.7624 23.4042C10.7624 23.7379 11.0622 24 11.4437 24H19.5654C19.9469 24 20.2467 23.7379 20.2467 23.4042C20.2467 23.0706 19.9469 22.8005 19.5654 22.8005H16.1859V20.9495C19.6562 20.6953 22 18.5187 22 15.3967V13.7841C22 13.4505 21.7002 13.1883 21.3187 13.1883C20.9371 13.1883 20.6283 13.4505 20.6283 13.7841V15.3491C20.6283 18.058 18.6114 19.8533 15.5045 19.8533C12.3976 19.8533 10.3717 18.058 10.3717 15.3491V13.7841C10.3717 13.4505 10.072 13.1883 9.69041 13.1883C9.30885 13.1883 9 13.4505 9 13.7841V15.3967C9 18.5187 11.3529 20.6953 14.8141 20.9495V22.8005H11.4437Z" fill="white"/>
</svg>
