<svg width="13" height="17" viewBox="0 0 13 17" fill="none" xmlns="http://www.w3.org/2000/svg">
<path d="M9.8113 8.11076V3.11402C9.8113 1.27896 8.45773 0 6.50453 0C4.55138 0 3.19777 1.27896 3.19777 3.11402V8.11076C3.19777 9.93786 4.55138 11.2247 6.50453 11.2247C8.45773 11.2247 9.8113 9.93786 9.8113 8.11076ZM8.43955 8.11076C8.43955 9.28645 7.66736 10.0411 6.50453 10.0411C5.34171 10.0411 4.56952 9.28645 4.56952 8.11076V3.11402C4.56952 1.9383 5.34171 1.18365 6.50453 1.18365C7.66736 1.18365 8.43955 1.9383 8.43955 3.11402V8.11076ZM2.44372 15.8005C2.06219 15.8005 1.76238 16.0706 1.76238 16.4042C1.76238 16.7379 2.06219 17 2.44372 17H10.5654C10.9469 17 11.2467 16.7379 11.2467 16.4042C11.2467 16.0706 10.9469 15.8005 10.5654 15.8005H7.18587V13.9495C10.6562 13.6953 13 11.5187 13 8.39672V6.78411C13 6.45046 12.7002 6.18832 12.3187 6.18832C11.9371 6.18832 11.6283 6.45046 11.6283 6.78411V8.34907C11.6283 11.058 9.61145 12.8533 6.50453 12.8533C3.39762 12.8533 1.37175 11.058 1.37175 8.34907V6.78411C1.37175 6.45046 1.07197 6.18832 0.690408 6.18832C0.308846 6.18832 0 6.45046 0 6.78411V8.39672C0 11.5187 2.3529 13.6953 5.81413 13.9495V15.8005H2.44372Z" fill="white"/>
</svg>
